<svg xmlns="http://www.w3.org/2000/svg" viewBox="0 0 85.6 85.5"><defs><style>.cls-1{fill:none;stroke:#000;stroke-width:0.66px;}</style></defs><g id="Capa_2" data-name="Capa 2"><g id="Capa_1-2" data-name="Capa 1"><ellipse class="cls-1" cx="42.8" cy="42.75" rx="42.47" ry="42.42"/><path d="M26.13,39.41a35.25,35.25,0,0,1,2.57-4c.33-.42.69-.82,1-1.24a5.16,5.16,0,0,1,4.21-1.9c2.25-.07,4.49-.2,6.73-.33,2.48-.14,5,.05,7.43.15,1.45,0,2.9.16,4.35.28a4.33,4.33,0,0,1,2.81,1.35A25.74,25.74,0,0,1,59,38.88c.09.16.05.6.46.43s.31-.34.25-.67c-.23-1.37-.09-1.57,1.28-1.74A6.36,6.36,0,0,1,63,37a.7.7,0,0,1,.62.68,1.38,1.38,0,0,1-1.2,1.83,7.31,7.31,0,0,1-1.14.18.89.89,0,0,0-.73.41c1.32.54,1.24,1.79,1.39,2.87a43.49,43.49,0,0,1,.19,5.82,4.42,4.42,0,0,1-1.4,2.86,12.15,12.15,0,0,1-2,1.77,1.3,1.3,0,0,1-.84.25H27.53a1.29,1.29,0,0,1-.88-.3A14.66,14.66,0,0,1,25,51.75a5.06,5.06,0,0,1-1.47-3.82A38.55,38.55,0,0,1,24,41.49a1.88,1.88,0,0,1,.53-1.06c.12-.11.44-.13.29-.39a.64.64,0,0,0-.54-.39,8.17,8.17,0,0,1-1.7-.29c-.56-.18-.79-.65-.76-1.5,0-.57.23-.91.84-1a7.82,7.82,0,0,1,2.85.22.36.36,0,0,1,.31.4,4.38,4.38,0,0,1-.06,1.15C25.62,39.08,25.79,39.25,26.13,39.41Zm32.1,1.69-.7-1.4a17.86,17.86,0,0,0-3.37-4.8A2.65,2.65,0,0,0,52.25,34c-.79,0-1.58-.14-2.37-.17-2.45-.1-4.91-.26-7.36-.24-2.8,0-5.6.17-8.4.32a3.74,3.74,0,0,0-2.39.55A18.15,18.15,0,0,0,27.2,41.1C37.57,41.28,47.85,41.29,58.23,41.1ZM42.65,49.94c2.12,0,4.23-.1,6.34-.24.42,0,.44-.23.38-.53s.08-.64-.44-.59-1.23.08-1.85.11a80.9,80.9,0,0,1-10.56-.1c-.55-.05-.5.24-.58.57s.12.51.51.54C38.51,49.85,40.58,50,42.65,49.94ZM36,50.41c.38.93.57,1.17,1,1.19,1.15,0,2.3.11,3.45.13,2.46,0,4.91.06,7.36-.12,1-.07,1.1-.12,1.5-1.21A91.24,91.24,0,0,1,36,50.41Zm19.77-3a13.3,13.3,0,0,0,2.05-.16,5.28,5.28,0,0,0,1.8-.39,1.48,1.48,0,0,0,.52-2c-.26-.57-.79-.72-1.51-.34A17.72,17.72,0,0,1,53.8,46c-.27.05-.71.08-.75.21-.08.3.2.58.41.82a1.36,1.36,0,0,0,1.09.45C54.89,47.45,55.23,47.42,55.76,47.39Zm-26,0,1,.06a1.53,1.53,0,0,0,1.46-.86c.17-.31.23-.5-.24-.56a18.42,18.42,0,0,1-1.94-.37,13.85,13.85,0,0,1-3.3-1.13c-1-.49-1.61-.05-1.62,1A1.19,1.19,0,0,0,26.22,47,15.62,15.62,0,0,0,29.76,47.39Zm12.9.77,6.14-.28c.13,0,.34.06.3-.2A1.61,1.61,0,0,0,48,46.83a79.83,79.83,0,0,1-10.26,0,1.23,1.23,0,0,0-1.31.64c-.06.1-.22.16-.17.31s.22.1.34.1Zm14.1,2.93H55.48c-.48,0-.7.21-.71.69s.06.88.64.89H58.1c.53,0,.67-.36.66-.82s-.21-.77-.73-.76ZM29,52.67h0c.47,0,.94,0,1.4,0s.6-.38.6-.81-.13-.76-.64-.76H27.63c-.5,0-.66.32-.67.75s.12.81.65.83Z"/><path d="M23.81,51.45c.76.81,1.52,1.61,2.29,2.41a1.41,1.41,0,0,0,1.2.45c.68,0,1.37,0,2.05,0,.31,0,.47.06.46.42,0,.55,0,1.11,0,1.66a1.06,1.06,0,0,1-1.14,1.12q-1.95,0-3.9,0a1.08,1.08,0,0,1-1.14-1.13c0-1.6,0-3.19,0-4.78Z"/><path d="M61.74,51.58c0,1.7,0,3.29,0,4.89a1,1,0,0,1-1,1c-1.35,0-2.69,0-4,0a1.08,1.08,0,0,1-1.09-1.05c0-.59,0-1.19,0-1.79,0-.3.14-.36.39-.35.68,0,1.37,0,2,0a1.68,1.68,0,0,0,1.38-.51C60.13,53.08,60.9,52.38,61.74,51.58Z"/></g></g></svg>