<svg xmlns="http://www.w3.org/2000/svg" viewBox="0 0 85.59 85.41"><defs><style>.cls-1{fill:none;stroke:#000;stroke-width:0.66px;}</style></defs><g id="Capa_2" data-name="Capa 2"><g id="Capa_1-2" data-name="Capa 1"><ellipse class="cls-1" cx="42.8" cy="42.71" rx="42.47" ry="42.38"/><path d="M30.18,49.22a1.67,1.67,0,0,1-.05.19,1.44,1.44,0,0,0,.48,2,4.37,4.37,0,0,1,1,5.25,4.59,4.59,0,1,1-4.87-6.47.43.43,0,0,0,.42-.38c.37-1.57.75-3.14,1.13-4.71.05-.22.14-.45-.23-.5-.17,0-.18-.15-.14-.3.18-.72.34-1.45.51-2.18,0-.16.1-.24.27-.18.34.14.38-.12.43-.34.41-1.69.81-3.39,1.22-5.08s.81-3.39,1.22-5.08a2.1,2.1,0,0,1,.21-.61c.32-.49.62-.67,1.07-.47a3.23,3.23,0,0,0,.63.16,1,1,0,0,1,.83,1.34q-.59,2.5-1.19,5c-.44,1.82-.87,3.64-1.32,5.46,0,.21,0,.33.21.36s.28.17.22.4c-.17.68-.33,1.37-.49,2.06,0,.16-.08.3-.32.24s-.28-.13-.36.08a.43.43,0,0,0,.07.48c.61.76,1.22,1.54,1.82,2.31,1.35,1.71,2.7,3.42,4,5.14a.79.79,0,0,0,.69.33q7.32,0,14.64,0c.41,0,.56-.11.65-.52a7.09,7.09,0,0,1,7-5.59,7.64,7.64,0,0,1,2.62.52c.29.11.38.23.22.54a8.34,8.34,0,0,0-.47,1.06c-.11.34-.25.39-.59.26a5.08,5.08,0,0,0-6.59,2.82,4.48,4.48,0,0,0-.2.62c0,.1-.1.24.08.27s.3.07.37-.12.1-.3.15-.45a4.61,4.61,0,1,1,0,3,.51.51,0,0,0-.6-.42c-6.21,0-12.42,0-18.63,0a1.9,1.9,0,0,1-1.65-.82c-1.36-1.77-2.75-3.52-4.14-5.27A.93.93,0,0,0,30.18,49.22Zm28.3,4.45c.51,0,1,0,1.48,0a1,1,0,0,1,1,1,1,1,0,0,1-1,1H58.87c-.12,0-.3-.07-.35.06s.13.24.23.33a1.77,1.77,0,0,0,2,.26,1.8,1.8,0,1,0-2.22-2.65Zm-32.15-.39a1.78,1.78,0,0,0-.26,2.57,1.85,1.85,0,0,0,2.6.2,1.6,1.6,0,0,0,.39-2.1c-.2.46-.16,1-.54,1.4a1.34,1.34,0,0,1-1.41.41,1.39,1.39,0,0,1-.76-.54C25.91,54.61,26.2,54,26.33,53.28Z"/><path d="M36.32,26c-.77,0-.93.11-1.07.68-.23.91-.46,1.81-.67,2.72-.06.27-.14.37-.43.29s-.89-.24-1.35-.33c-.22-.05-.28-.14-.22-.36.13-.48.24-1,.37-1.46.07-.24.07-.35-.23-.39a1.13,1.13,0,0,1-1-1.07,1.15,1.15,0,0,1,.83-1.18,2.58,2.58,0,0,1,1-.25.4.4,0,0,0,.31-.13c.1-.08.21-.2.32-.21,1.1-.06,1.88-.91,2.92-1.15s1.82.32,1.73,1.28a1,1,0,0,1-.47.84A6.86,6.86,0,0,1,36.32,26Z"/></g></g></svg>